# xmcd CD database file
# Copyright (C) 1993-1998 Ti Kan
# 
# Track frame offsets:
#     150
#     19660
#     43135
#     55395
#     75685
#     111105
#     128660
#     150920
#     168055
#     190467
#     212622
#     230584
#     252520
#     288015
#     307292
# 
# Disc length: 4429 seconds
# 
# Revision: 1
# Processed by: cddbd v1.4b41PL1 Copyright (c) Steve Scherf et al.
# Submitted via: DiscPlay 4.0.4
# 
DISCID=c9114b0f
DTITLE=Rob Thorworth - Life is Suffering
DYEAR=1900
DGENRE=
TTITLE0=Nat's Nut
TTITLE1=Lick O' Sense
TTITLE2=Love My Baby
TTITLE3=Make Me A Key
TTITLE4=Time In Hell
TTITLE5=Straight Down The River
TTITLE6=Squeeze Play
TTITLE7=Savin' My Sympothy
TTITLE8=Slap You Baldheaded
TTITLE9=Left Right For Wrong
TTITLE10=Hot N' Sticky
TTITLE11=Can't Say
TTITLE12=The First Noble Truth
TTITLE13=The Stitch Ain't Strong
TTITLE14=Pick It Up
EXTD=
EXTT0=
EXTT1=
EXTT2=
EXTT3=
EXTT4=
EXTT5=
EXTT6=
EXTT7=
EXTT8=
EXTT9=
EXTT10=
EXTT11=
EXTT12=
EXTT13=
EXTT14=
PLAYORDER=
